<svg width="50" height="50" viewBox="0 0 50 50" fill="none" xmlns="http://www.w3.org/2000/svg">
<rect opacity="0.1" x="0.5" y="0.5" width="49" height="49" rx="24.5" fill="#FBFF22" stroke="#0F0F0F"/>
<path d="M13.4239 24.5079L18.954 26.8785L21.0945 34.7848C21.2314 35.2911 21.7706 35.4783 22.1284 35.1423L25.2109 32.2561C25.5341 31.9537 25.9943 31.9386 26.332 32.2202L31.8919 36.8563C32.2746 37.1759 32.817 36.935 32.913 36.4037L36.9859 13.9023C37.0907 13.3219 36.5942 12.8378 36.113 13.0515L13.4174 23.1073C12.8574 23.3554 12.8622 24.2661 13.4239 24.5079ZM20.7495 25.6165L31.5574 17.9712C31.7516 17.8342 31.9514 18.1358 31.7847 18.3135L22.865 27.8364C22.5515 28.1715 22.3493 28.6201 22.292 29.107L21.9881 31.6932C21.9479 32.0385 21.5256 32.0728 21.4426 31.7386L20.2741 27.0226C20.1402 26.4847 20.3353 25.9102 20.7495 25.6165Z" fill="#FBFF22"/>
</svg>
